<svg xmlns="http://www.w3.org/2000/svg" width="256" height="249" fill="none" viewBox="0 0 256 249"><g clip-path="url(#clip0_2_14375)"><path fill="url(#paint0_linear_2_14375)" d="M167.876 46.3685L144.196 62.1732L119.801 25.6143L143.481 9.80957L167.876 46.3685Z"/><path fill="url(#paint1_linear_2_14375)" d="M187.129 156.199L227.589 216.83L179.391 248.994L138.93 188.363L131.872 177.787L180.071 145.622L187.129 156.199Z"/><path fill="url(#paint2_linear_2_14375)" d="M126.422 196.71L135.33 210.059L98.6436 234.541L82.6767 210.615L90.6916 205.266L119.364 186.133L126.422 196.71Z"/><path fill="url(#paint3_linear_2_14375)" d="M207.172 127.536L217.462 120.67L233.428 144.596L209.745 160.4L200.837 147.052L214.23 138.114L207.172 127.536ZM200.837 147.052L193.779 136.475L207.172 127.536L214.23 138.114L200.837 147.052Z"/><path fill="url(#paint4_linear_2_14375)" d="M41.1093 130.967L33.0954 136.315L8.69833 99.7565L45.3847 75.2744L62.4855 100.901L33.8139 120.035L62.4855 100.901L69.7818 111.834L41.1093 130.967Z"/><path fill="url(#paint5_linear_2_14375)" d="M130.489 71.3223L82.2894 103.487L74.9941 92.5536L34.912 32.4909L83.1113 0.326172L123.193 60.3889L130.489 71.3223Z"/><path fill="url(#paint6_linear_2_14375)" d="M157.59 53.237L144.197 62.1742L136.9 51.2417L119.8 25.6152L143.483 9.81055L167.88 46.3695L157.59 53.237Z"/><path fill="#714896" d="M97.7503 215.844L90.6916 205.266L119.364 186.133L126.422 196.71L97.7503 215.844Z"/><path fill="#6F4795" d="M200.837 147.051L193.779 136.474L207.172 127.536L214.23 138.113L200.837 147.051Z"/><path fill="#88519F" d="M41.1093 130.966L33.814 120.034L62.4855 100.9L69.7819 111.834L41.1093 130.966Z"/><path fill="#85509E" d="M144.197 62.1743L136.9 51.2418L150.295 42.3037L157.59 53.2371L144.197 62.1743Z"/><path fill="#8D166A" d="M187.129 156.199L138.93 188.363L131.872 177.787L180.071 145.622L187.129 156.199Z"/><path fill="#A70D6F" d="M123.193 60.3887L130.489 71.3221L82.2894 103.487L74.994 92.5534L123.193 60.3887Z"/><path fill="#9E61AD" d="M27.4386 51.6523L36.5361 65.2851L22.9033 74.3826L13.8058 60.7498L27.4386 51.6523Z"/><path fill="#8053A3" d="M76.568 215.084L85.6655 228.717L72.0327 237.814L62.9352 224.181L76.568 215.084Z"/><path fill="url(#paint7_linear_2_14375)" d="M40.7042 228.814L0.791687 168.518L214.089 25.8555L255.941 85.1892L40.7042 228.814Z"/></g><defs><linearGradient id="paint0_linear_2_14375" x1="-66.804" x2="252.877" y1="-49.716" y2="177.426" gradientUnits="userSpaceOnUse"><stop stop-color="#C06FBB"/><stop offset="1" stop-color="#6E4D9B"/></linearGradient><linearGradient id="paint1_linear_2_14375" x1="201.693" x2="24.354" y1="227.818" y2="35.579" gradientUnits="userSpaceOnUse"><stop stop-color="#6E4D9B"/><stop offset=".14" stop-color="#77327A"/><stop offset=".29" stop-color="#B31777"/><stop offset=".84" stop-color="#CD0F7E"/><stop offset="1" stop-color="#ED2C89"/></linearGradient><linearGradient id="paint2_linear_2_14375" x1="-39.591" x2="184.715" y1="-149.624" y2="252.12" gradientUnits="userSpaceOnUse"><stop stop-color="#C06FBB"/><stop offset="1" stop-color="#6E4D9B"/></linearGradient><linearGradient id="paint3_linear_2_14375" x1="-131.816" x2="234.814" y1="-64.844" y2="234.067" gradientUnits="userSpaceOnUse"><stop stop-color="#C06FBB"/><stop offset="1" stop-color="#6E4D9B"/></linearGradient><linearGradient id="paint4_linear_2_14375" x1="-76.876" x2="264.124" y1="-65.685" y2="235.423" gradientUnits="userSpaceOnUse"><stop stop-color="#C06FBB"/><stop offset="1" stop-color="#6E4D9B"/></linearGradient><linearGradient id="paint5_linear_2_14375" x1="217.543" x2="39.776" y1="232.507" y2="39.112" gradientUnits="userSpaceOnUse"><stop stop-color="#6E4D9B"/><stop offset=".14" stop-color="#77327A"/><stop offset=".29" stop-color="#B31777"/><stop offset=".84" stop-color="#CD0F7E"/><stop offset="1" stop-color="#ED2C89"/></linearGradient><linearGradient id="paint6_linear_2_14375" x1="-66.798" x2="257.788" y1="-62.832" y2="215.374" gradientUnits="userSpaceOnUse"><stop stop-color="#C06FBB"/><stop offset="1" stop-color="#6E4D9B"/></linearGradient><linearGradient id="paint7_linear_2_14375" x1="30.143" x2="185.125" y1="207.813" y2="13.575" gradientUnits="userSpaceOnUse"><stop stop-color="#6E4D9B"/><stop offset=".14" stop-color="#77327A"/><stop offset=".53" stop-color="#B31777"/><stop offset=".79" stop-color="#CD0F7E"/><stop offset="1" stop-color="#ED2C89"/></linearGradient><clipPath id="clip0_2_14375"><rect width="256" height="249" fill="#fff"/></clipPath></defs></svg>