<svg xmlns="http://www.w3.org/2000/svg" width="256" height="317" fill="none" viewBox="0 0 256 317"><g clip-path="url(#clip0_2_15406)"><path fill="#FFDF51" fill-opacity=".7" d="M211.69 309.979V228.121H130.489L211.69 309.979Z"/><path fill="#FF8900" fill-opacity=".7" d="M220.801 263.567V175.033H132.979L220.801 263.567Z"/><path fill="url(#paint0_linear_2_15406)" fill-opacity=".7" d="M167.467 228.119V316.652H255.289L167.467 228.119Z"/><path fill="#FFDF4F" fill-opacity=".7" d="M202.444 180.962V110.936H132.977L202.444 180.962Z"/><path fill="url(#paint1_linear_2_15406)" fill-opacity=".8" d="M235.424 164.266V75.7324H147.602L235.424 164.266Z"/><path fill="url(#paint2_linear_2_15406)" fill-opacity=".8" d="M85.7356 0V88.5333H173.557L85.7356 0Z"/><path fill="url(#paint3_linear_2_15406)" fill-opacity=".88" d="M106.334 138.666V50.1328H0.135498L87.5776 138.684L106.334 138.666Z"/><path fill="#FFB700" fill-opacity=".7" d="M106.334 316.175V209.066H0.135498L106.334 316.175Z"/><path fill="#FFB700" fill-opacity=".5" d="M106.357 227.467V138.934H18.5354L106.357 227.467Z"/><path fill="#FFCD25" fill-opacity=".7" d="M132.976 110.934V199.467H220.799L132.976 110.934Z"/><path fill="#FF8900" fill-opacity=".7" d="M106.135 120.899V32.3652H18.3125L106.135 120.899Z"/><path fill="#FF8900" fill-opacity=".7" d="M130.489 228.119V316.652H218.311L130.489 228.119Z"/></g><defs><linearGradient id="paint0_linear_2_15406" x1="181.613" x2="231.371" y1="279.634" y2="292.455" gradientUnits="userSpaceOnUse"><stop stop-color="#FFD441"/><stop offset="1" stop-color="#FFB047"/></linearGradient><linearGradient id="paint1_linear_2_15406" x1="209.265" x2="235.776" y1="133.985" y2="75.893" gradientUnits="userSpaceOnUse"><stop stop-color="#FFD754"/><stop offset="1" stop-color="#FFB532"/></linearGradient><linearGradient id="paint2_linear_2_15406" x1="105.213" x2="105.213" y1="58.554" y2="8.248" gradientUnits="userSpaceOnUse"><stop stop-color="#FFD441"/><stop offset="1" stop-color="#FFB532"/></linearGradient><linearGradient id="paint3_linear_2_15406" x1="94.602" x2="15.198" y1="71.65" y2="50.039" gradientUnits="userSpaceOnUse"><stop stop-color="#FFD441"/><stop offset="1" stop-color="#FFA829"/></linearGradient><clipPath id="clip0_2_15406"><rect width="256" height="317" fill="#fff"/></clipPath></defs></svg>