<svg xmlns="http://www.w3.org/2000/svg" width="256" height="209" fill="none" viewBox="0 0 256 209"><g clip-path="url(#clip0_2_14460)"><path fill="#166DA5" d="M255.997 104.029L228.192 150.85L189.201 103.39L228.192 57.208L255.997 104.029Z"/><path fill="#8FDB69" d="M225.156 158.84L182.809 108.184L157.401 150.69L196.871 208.377L225.156 158.84Z"/><path fill="#166DA5" d="M224.676 48.8986L182.809 99.7144L157.401 57.2081L196.871 0.160156L224.676 48.8986Z"/><path fill="url(#paint0_linear_2_14460)" d="M96.9975 48.8986H224.676L196.552 0.160156H125.122L96.9975 48.8986Z" opacity=".95"/><path fill="url(#paint1_linear_2_14460)" d="M182.809 99.8737H253.44L228.032 57.0479H157.241" opacity=".95"/><path fill="url(#paint2_linear_2_14460)" d="M225.156 158.999H96.8376L124.962 207.737H196.871L225.156 158.999Z" opacity=".95"/><path fill="#010101" d="M124.962 207.738L64.878 103.869L125.761 0H59.9243L0 103.869L59.9243 207.738H124.962Z"/><path fill="url(#paint3_linear_2_14460)" d="M182.809 108.023H253.44L228.032 150.849H157.241" opacity=".95"/></g><defs><linearGradient id="paint0_linear_2_14460" x1="96.998" x2="224.676" y1="24.529" y2="24.529" gradientUnits="userSpaceOnUse"><stop stop-color="#2A3B8F"/><stop offset="1" stop-color="#29ABE2"/></linearGradient><linearGradient id="paint1_linear_2_14460" x1="157.241" x2="253.44" y1="78.461" y2="78.461" gradientUnits="userSpaceOnUse"><stop stop-color="#2A3B8F"/><stop offset="1" stop-color="#29ABE2"/></linearGradient><linearGradient id="paint2_linear_2_14460" x1="225.156" x2="96.838" y1="183.368" y2="183.368" gradientUnits="userSpaceOnUse"><stop stop-color="#B4D44E"/><stop offset="1" stop-color="#E7F716"/></linearGradient><linearGradient id="paint3_linear_2_14460" x1="253.44" x2="157.241" y1="129.436" y2="129.436" gradientUnits="userSpaceOnUse"><stop stop-color="#B4D44E"/><stop offset="1" stop-color="#E7F716"/></linearGradient><clipPath id="clip0_2_14460"><rect width="256" height="209" fill="#fff"/></clipPath></defs></svg>